<?xml version="1.0" standalone="no"?><!DOCTYPE svg PUBLIC "-//W3C//DTD SVG 1.1//EN" "http://www.w3.org/Graphics/SVG/1.1/DTD/svg11.dtd"><svg class="icon" width="300px" height="300.00px" viewBox="0 0 1024 1024" version="1.1" xmlns="http://www.w3.org/2000/svg"><path fill="#000000" d="M446.171429 555.885714H351.085714c-14.628571 0-21.942857-14.628571-14.628571-21.942857l95.085714-263.314286c0-7.314286 7.314286-14.628571 14.628572-14.628571h160.914285c14.628571 0 21.942857 14.628571 14.628572 29.257143l-58.514286 146.285714h109.714286c14.628571 0 21.942857 21.942857 14.628571 29.257143l-263.314286 307.2c-14.628571 14.628571-36.571429 0-29.257142-14.628571l51.2-197.485715z m504.685714 270.628572V197.485714c43.885714-14.628571 73.142857-51.2 73.142857-95.085714 0-58.514286-43.885714-102.4-102.4-102.4-43.885714 0-80.457143 29.257143-95.085714 73.142857H197.485714C182.857143 29.257143 146.285714 0 102.4 0 43.885714 0 0 43.885714 0 102.4c0 43.885714 29.257143 80.457143 73.142857 95.085714v629.028572c-43.885714 14.628571-73.142857 51.2-73.142857 95.085714 0 58.514286 43.885714 102.4 102.4 102.4 43.885714 0 80.457143-29.257143 95.085714-73.142857h629.028572c14.628571 43.885714 51.2 73.142857 95.085714 73.142857 58.514286 0 102.4-43.885714 102.4-102.4 0-43.885714-29.257143-80.457143-73.142857-95.085714m-124.342857 65.828571H197.485714c-7.314286-29.257143-36.571429-58.514286-65.828571-65.828571V197.485714c29.257143-7.314286 58.514286-36.571429 65.828571-65.828571h629.028572c7.314286 29.257143 36.571429 58.514286 65.828571 65.828571v629.028572c-29.257143 14.628571-51.2 36.571429-65.828571 65.828571" /></svg>