<svg width="1229" height="797" xmlns="http://www.w3.org/2000/svg" xmlns:xlink="http://www.w3.org/1999/xlink" xml:space="preserve" overflow="hidden" viewBox="0 0 1229 797">
  <g transform="translate(-682 -1283)">
    <g><rect x="685" y="1284" width="578" height="134" fill="#B5D1E2" fill-opacity="1"/><rect x="685" y="1418" width="578" height="660" fill="#F8C361" fill-opacity="1"/><rect x="783" y="1406" width="480" height="455" fill="#F5F5F7" fill-opacity="1"/><path d="M978.647 1732.32 978.647 1732.32ZM907.682 1625.23 907.682 1625.23ZM1124.96 1527.95C1131.29 1527.35 1137.85 1529.17 1143.14 1533.55L1143.14 1533.55C1153.72 1542.3 1155.2 1557.98 1146.45 1568.55L1013.65 1729.01C1011.46 1731.66 1008.84 1733.73 1005.98 1735.22L1003.15 1736.05 1003.03 1736.13 1002.63 1736.21 996.834 1737.91 994.603 1737.69 993.659 1737.87 991.123 1737.35 987.348 1736.98 986.149 1736.34 984.32 1735.96 980.013 1733.05 978.647 1732.32 978.302 1731.89 976.145 1730.43 907.364 1660.39C900.148 1653.04 898.424 1642.35 902.146 1633.41L907.682 1625.23 915.955 1619.84C924.967 1616.29 935.626 1618.2 942.842 1625.55L992.709 1676.33 1108.14 1536.85C1112.52 1531.56 1118.62 1528.55 1124.96 1527.95Z" fill="#2594B8" fill-rule="evenodd" fill-opacity="1"/><path d="M1473 1502.24C1473 1476.15 1494.15 1455 1520.24 1455L1860.76 1455C1886.85 1455 1908 1476.15 1908 1502.24L1908 1785.76C1908 1811.85 1886.85 1833 1860.76 1833L1520.24 1833C1494.15 1833 1473 1811.85 1473 1785.76Z" fill="#F76E49" fill-rule="evenodd" fill-opacity="1"/><rect x="1617" y="1952" width="291" height="76" fill="#FB844F" fill-opacity="1"/><rect x="1617" y="1983" width="291" height="45" fill="#F76B48" fill-opacity="1"/><path d="M1617 2028 1517 1990 1617 1952Z" fill="#F1EDE9" fill-rule="evenodd" fill-opacity="1"/><path d="M1556.34 1983 1617 1983 1617 2028 1554.45 2004.2 1557.41 1999.19ZM1535.25 1983 1536.07 1983 1518.11 1989.86 1518.83 1990.64 1517 1989.94Z" fill="#ECDED9" fill-rule="evenodd" fill-opacity="1"/><path d="M1555.36 1975.71C1558.87 1984.89 1558.88 1995.05 1555.38 2004.23L1518 1990Z" fill="#182841" fill-rule="evenodd" fill-opacity="1"/><path d="M1581.92 1532 1798.54 1532C1806.25 1532 1813.22 1535.12 1818.28 1540.17L1821 1544.21 1580.6 1755 1571.05 1753.07C1561.03 1748.84 1554 1738.92 1554 1727.36L1554 1559.9C1554 1544.49 1566.5 1532 1581.92 1532Z" fill="#FFFFFF" fill-rule="evenodd" fill-opacity="1"/><path d="M27.916 0 244.537 0C252.246 0 259.225 3.12298 264.277 8.1724L267 12.2091 26.5982 223 17.0499 221.073C7.03041 216.838 0 206.922 0 195.364L0 27.9016C0 12.4919 12.4983 0 27.916 0Z" fill="#E65944" fill-rule="evenodd" fill-opacity="0.411765" transform="matrix(-1 0 0 1 1824 1530)"/>
    </g>
  </g>
</svg>