<svg width="1307" height="784" xmlns="http://www.w3.org/2000/svg" xmlns:xlink="http://www.w3.org/1999/xlink" xml:space="preserve" overflow="hidden" viewBox="0 0 1307 784">
  <g transform="translate(-2552 -1590)">
    <g><path d="M2665.7 1593 3742.3 1593C3760.91 1593 3776 1608.08 3776 1626.68L3776 1652.6 3776 2037.53 3776 2274 2632 2274 2632 2037.53 2632 1652.6 2632 1626.68C2632 1608.08 2647.09 1593 2665.7 1593Z" fill="#192A48" fill-rule="evenodd" fill-opacity="1"/><path d="M2702 1688.69C2702 1668.43 2718.43 1652 2738.69 1652L3669.31 1652C3689.57 1652 3706 1668.43 3706 1688.69L3706 2136.31C3706 2156.57 3689.57 2173 3669.31 2173L2738.69 2173C2718.43 2173 2702 2156.57 2702 2136.31Z" fill="#FFFFFF" fill-rule="evenodd" fill-opacity="1"/><path d="M2554 2311.66C2554 2290.31 2571.31 2273 2592.66 2273L3816.34 2273C3837.69 2273 3855 2290.31 3855 2311.66L3855 2331.34C3855 2352.69 3837.69 2370 3816.34 2370L2592.66 2370C2571.31 2370 2554 2352.69 2554 2331.34Z" fill="#2E4563" fill-rule="evenodd" fill-opacity="1"/><path d="M3026 2273 3382 2273 3379.6 2284.89C3371.88 2303.17 3353.81 2316 3332.75 2316L3075.25 2316C3054.19 2316 3036.12 2303.17 3028.4 2284.89Z" fill="#F9864A" fill-rule="evenodd" fill-opacity="1"/><path d="M2931 1869C2982.91 1869 3025 1901.46 3025 1941.5 3025 1981.54 2982.91 2014 2931 2014 2879.08 2014 2837 1981.54 2837 1941.5 2837 1901.46 2879.08 1869 2931 1869Z" fill="#EFE1E0" fill-rule="evenodd" fill-opacity="1"/><path d="M2875.17 1840.9C2912.9 1800.53 2972.09 1794.52 3007.37 1827.49 3042.66 1860.46 3040.67 1919.92 3002.94 1960.3 2965.21 2000.68 2906.02 2006.68 2870.74 1973.71 2835.46 1940.74 2837.44 1881.28 2875.17 1840.9Z" fill="#EB6A40" fill-rule="evenodd" fill-opacity="1"/><path d="M2865.54 1836.61C2902.03 1795.1 2961 1787.3 2997.27 1819.17 3033.53 1851.05 3033.36 1910.54 2996.87 1952.05 2960.38 1993.56 2901.41 2001.36 2865.14 1969.48 2828.88 1937.6 2829.06 1878.11 2865.54 1836.61Z" fill="#F4A42B" fill-rule="evenodd" fill-opacity="1"/><path d="M2856.51 1864.29C2863.94 1849.1 2873.99 1838.75 2878.96 1841.18 2883.92 1843.61 2881.92 1857.89 2874.49 1873.09 2867.05 1888.28 2857 1898.63 2852.04 1896.2 2847.07 1893.77 2849.08 1879.49 2856.51 1864.29Z" fill="#FCD6A4" fill-rule="evenodd" fill-opacity="1"/><path d="M3141 1800.5C3141 1789.73 3149.73 1781 3160.5 1781L3552.5 1781C3563.27 1781 3572 1789.73 3572 1800.5L3572 1800.5C3572 1811.27 3563.27 1820 3552.5 1820L3160.5 1820C3149.73 1820 3141 1811.27 3141 1800.5Z" fill="#E9E6E5" fill-rule="evenodd" fill-opacity="1"/><path d="M3141 1788C3141 1777.51 3149.51 1769 3160 1769L3564 1769C3574.49 1769 3583 1777.51 3583 1788L3583 1788C3583 1798.49 3574.49 1807 3564 1807L3160 1807C3149.51 1807 3141 1798.49 3141 1788Z" fill="#1287A8" fill-rule="evenodd" fill-opacity="1"/><path d="M3141 1906.5C3141 1895.73 3149.73 1887 3160.5 1887L3552.5 1887C3563.27 1887 3572 1895.73 3572 1906.5L3572 1906.5C3572 1917.27 3563.27 1926 3552.5 1926L3160.5 1926C3149.73 1926 3141 1917.27 3141 1906.5Z" fill="#E9E6E5" fill-rule="evenodd" fill-opacity="1"/><path d="M3141 1894C3141 1883.51 3149.51 1875 3160 1875L3564 1875C3574.49 1875 3583 1883.51 3583 1894L3583 1894C3583 1904.49 3574.49 1913 3564 1913L3160 1913C3149.51 1913 3141 1904.49 3141 1894Z" fill="#1287A8" fill-rule="evenodd" fill-opacity="1"/><path d="M3141 2012.5C3141 2001.73 3149.73 1993 3160.5 1993L3552.5 1993C3563.27 1993 3572 2001.73 3572 2012.5L3572 2012.5C3572 2023.27 3563.27 2032 3552.5 2032L3160.5 2032C3149.73 2032 3141 2023.27 3141 2012.5Z" fill="#E9E6E5" fill-rule="evenodd" fill-opacity="1"/><path d="M3141 2000.5C3141 1989.73 3149.73 1981 3160.5 1981L3563.5 1981C3574.27 1981 3583 1989.73 3583 2000.5 3583 2011.27 3574.27 2020 3563.5 2020L3160.5 2020C3149.73 2020 3141 2011.27 3141 2000.5Z" fill="#1287A8" fill-rule="evenodd" fill-opacity="1"/><path d="M3035 2293 3374 2293 3372.21 2296.03C3362.9 2307.62 3348.81 2315 3333.04 2315L3075.96 2315C3060.19 2315 3046.1 2307.62 3036.79 2296.03Z" fill="#F17140" fill-rule="evenodd" fill-opacity="1"/>
    </g>
  </g>
</svg>