<svg id="图层_1" data-name="图层 1" xmlns="http://www.w3.org/2000/svg" xmlns:xlink="http://www.w3.org/1999/xlink" viewBox="0 0 116.56 68.45"><defs><style>.cls-1{fill:none;}.cls-2{fill:#004098;}.cls-2,.cls-3{fill-rule:evenodd;}.cls-3{fill:#00a0e9;}.cls-4{clip-path:url(#clip-path);}.cls-5{fill:url(#未命名的渐变);}.cls-6{clip-path:url(#clip-path-2);}.cls-7{fill:url(#未命名的渐变_2);}</style><clipPath id="clip-path" transform="translate(-437.39 -112.37)"><polygon class="cls-1" points="492.22 131.86 505.8 140.83 520.79 137.85 512.45 128.33 510.11 126.58 492.22 131.86"/></clipPath><linearGradient id="未命名的渐变" y1="481.67" x2="1" y2="481.67" gradientTransform="matrix(-3.56, 0, 0, 3.56, 503.79, -1581.79)" gradientUnits="userSpaceOnUse"><stop offset="0" stop-color="#00a0e9"/><stop offset="1" stop-color="#0087ca"/></linearGradient><clipPath id="clip-path-2" transform="translate(-437.39 -112.37)"><polygon class="cls-1" points="470.47 155.81 478.81 165.19 480.72 167.2 499.12 161.78 485.54 152.8 470.47 155.81"/></clipPath><linearGradient id="未命名的渐变_2" y1="481.69" x2="1" y2="481.69" gradientTransform="matrix(3.55, 0, 0, -3.55, 487.35, 1869.48)" gradientUnits="userSpaceOnUse"><stop offset="0" stop-color="#004098"/><stop offset="1" stop-color="#082b66"/></linearGradient></defs><title>清鸾科技1VI</title><path class="cls-2" d="M457.38,121.43l-18.67,48.31c-3.55,9.19.15,9.55,9.6,7l51-15.05-13.66-8.91-23.95,4.73,6.75-16.7H505.8l-34.23-22.62c-5.4-3.64-11.38-4.47-14.19,3.21" transform="translate(-437.39 -112.37)"/><path class="cls-3" d="M534,172.21l18.66-48.31c3.55-9.19-.15-9.55-9.6-7l-50.8,15,13.58,9,23.8-4.73-6.75,16.7H485.54l34.23,22.62c5.4,3.64,11.38,4.47,14.2-3.21" transform="translate(-437.39 -112.37)"/><g class="cls-4"><rect class="cls-5" x="491.65" y="118.32" width="29.71" height="30.77" transform="translate(-369.1 308.37) rotate(-48.01)"/></g><g class="cls-6"><rect class="cls-7" x="470.55" y="144.18" width="28.48" height="31.64" transform="translate(-366.85 345.99) rotate(-54.03)"/></g></svg>