<?xml version="1.0" standalone="no"?>
<!DOCTYPE svg PUBLIC "-//W3C//DTD SVG 20010904//EN"
 "http://www.w3.org/TR/2001/REC-SVG-20010904/DTD/svg10.dtd">
<svg version="1.0" xmlns="http://www.w3.org/2000/svg"
 width="936.000000pt" height="936.000000pt" viewBox="0 0 936.000000 936.000000"
 preserveAspectRatio="xMidYMid meet">
<metadata>
Created by potrace 1.14, written by Peter Selinger 2001-2017
</metadata>
<g transform="translate(0.000000,936.000000) scale(0.100000,-0.100000)"
fill="#000000" stroke="none">
<path d="M2040 7164 c-91 -23 -177 -73 -246 -143 -35 -36 -64 -68 -64 -72 0
-4 -6 -14 -13 -21 -6 -7 -21 -31 -32 -53 -11 -22 -25 -47 -31 -55 -6 -8 -16
-28 -21 -45 -6 -16 -14 -39 -19 -50 -4 -11 -8 -24 -10 -30 -2 -5 -51 -131
-109 -280 -58 -148 -113 -290 -122 -315 -8 -25 -20 -51 -25 -57 -6 -7 -7 -13
-4 -13 4 0 1 -10 -6 -22 -6 -13 -13 -27 -14 -33 -1 -5 -8 -23 -15 -40 -7 -16
-13 -32 -14 -35 -1 -3 -5 -14 -10 -25 -4 -11 -25 -65 -46 -120 -21 -55 -44
-113 -50 -130 -7 -16 -13 -32 -14 -35 -4 -11 -17 -46 -25 -65 -4 -11 -26 -67
-48 -125 -23 -58 -88 -228 -146 -378 -58 -150 -106 -275 -106 -278 0 -3 -7
-20 -15 -37 -12 -28 -57 -143 -60 -157 -1 -3 -6 -16 -12 -30 -6 -14 -25 -61
-41 -105 -17 -44 -36 -93 -43 -110 -7 -16 -13 -34 -15 -40 -2 -8 -61 -161 -89
-230 -5 -11 -9 -22 -9 -25 -4 -16 -41 -107 -46 -115 -4 -5 -11 -21 -15 -35 -4
-14 -28 -77 -52 -140 -25 -63 -65 -167 -89 -230 -23 -63 -70 -185 -103 -270
-34 -85 -61 -161 -61 -167 0 -7 -5 -13 -12 -13 -6 0 -9 -3 -6 -6 5 -4 -14 -60
-51 -149 -5 -11 -14 -33 -21 -50 -23 -56 -77 -230 -97 -310 -3 -11 -7 -59 -9
-108 -6 -131 24 -195 110 -236 54 -26 84 -31 181 -31 78 0 96 2 160 14 17 3
48 8 70 12 22 3 69 13 105 21 36 8 74 17 85 19 11 2 79 20 150 40 72 19 135
37 140 38 6 1 15 4 20 8 6 3 26 9 45 14 42 10 41 9 60 17 18 7 556 166 584
172 10 2 33 9 51 15 18 6 41 12 51 15 10 2 33 8 49 14 38 12 207 62 220 65 6
2 30 9 55 16 25 7 50 15 55 16 6 1 25 7 43 13 17 5 32 7 32 3 0 -4 4 -2 8 4 4
6 30 16 57 23 28 7 93 25 145 41 214 67 366 112 385 114 11 2 21 5 23 6 1 1 7
4 12 5 6 1 11 3 13 5 1 1 9 3 17 5 15 3 198 57 345 101 44 14 88 27 98 29 10
2 57 16 105 30 47 15 93 29 102 31 8 2 76 22 150 44 74 22 142 42 150 44 8 2
22 6 30 9 15 6 211 64 240 71 22 6 353 103 510 151 25 7 86 25 135 40 50 15
103 31 118 36 19 6 36 5 50 -3 40 -21 312 -203 315 -210 2 -5 8 -8 13 -8 5 0
129 -80 276 -178 383 -255 537 -356 548 -361 6 -2 12 -7 15 -10 8 -10 100 -71
106 -71 4 0 23 -14 44 -30 21 -17 42 -30 46 -30 5 0 20 -9 34 -21 82 -66 458
-299 484 -299 7 0 16 -4 22 -9 10 -10 156 -57 207 -67 59 -12 189 -11 241 1
123 29 224 97 304 204 15 20 29 38 32 41 14 13 81 154 114 240 20 52 41 104
45 115 8 17 21 49 26 65 6 16 19 49 31 77 8 17 14 36 14 42 0 6 5 19 10 29 6
9 53 130 105 267 52 138 99 259 104 270 10 23 105 267 107 275 0 3 4 14 9 25
8 21 32 82 135 350 34 88 72 187 85 220 13 33 58 148 99 255 41 107 80 209 87
225 7 17 13 35 15 40 1 6 32 87 69 180 37 94 68 175 69 180 3 10 8 22 39 98 9
20 13 37 9 37 -4 0 -2 4 3 8 6 4 16 23 22 42 10 32 48 129 191 495 25 66 47
122 48 125 0 3 4 14 9 25 4 11 20 52 35 90 15 39 31 79 35 90 4 11 9 25 11 30
1 6 27 73 57 150 90 229 123 353 126 471 4 151 -47 222 -177 248 -75 15 -200
11 -317 -10 -66 -12 -221 -45 -235 -51 -8 -3 -24 -7 -35 -9 -27 -5 -47 -10
-65 -17 -8 -3 -58 -17 -110 -32 -52 -14 -140 -39 -195 -56 -55 -17 -125 -37
-155 -46 -30 -8 -66 -19 -80 -23 -44 -15 -170 -52 -183 -54 -7 -1 -22 -8 -34
-14 -13 -7 -23 -11 -23 -8 0 2 -30 -4 -67 -15 -38 -11 -75 -22 -83 -24 -8 -2
-28 -8 -45 -15 -16 -6 -31 -11 -33 -10 -1 1 -33 -8 -70 -19 -143 -43 -448
-133 -462 -136 -8 -2 -34 -10 -58 -19 -23 -8 -46 -16 -50 -16 -4 0 -25 -6 -47
-12 -22 -6 -44 -12 -50 -14 -5 -1 -39 -11 -75 -23 -36 -12 -74 -23 -85 -26
-29 -6 -162 -45 -305 -89 -47 -15 -96 -29 -110 -32 -13 -3 -53 -14 -87 -26
-35 -11 -69 -21 -76 -22 -6 -2 -19 -6 -27 -9 -8 -3 -64 -20 -125 -37 -60 -18
-132 -39 -160 -47 -27 -8 -63 -18 -80 -23 -59 -16 -341 -100 -375 -112 -19 -6
-42 -12 -50 -13 -8 -1 -28 -7 -43 -14 -16 -6 -32 -11 -37 -11 -5 0 -38 -9 -72
-20 -98 -30 -371 -112 -388 -115 -8 -2 -37 -10 -65 -19 -154 -49 -220 -64
-234 -53 -7 6 -21 16 -31 22 -9 5 -37 23 -61 40 -24 16 -52 34 -61 40 -22 13
-106 69 -143 95 -75 53 -228 150 -236 150 -5 0 -9 3 -9 8 0 4 -16 16 -35 26
-19 11 -35 23 -35 28 0 4 -5 8 -12 8 -6 0 -26 11 -44 25 -18 14 -35 25 -39 25
-3 0 -11 5 -18 11 -22 19 -449 299 -456 299 -5 0 -16 9 -26 20 -10 11 -24 20
-31 20 -7 0 -14 3 -16 8 -1 4 -109 77 -238 161 -129 85 -246 161 -260 170 -48
32 -206 99 -283 121 -99 27 -241 34 -317 14z m5355 -1682 c-7 -15 -55 -130
-105 -257 -51 -126 -101 -249 -111 -272 -10 -23 -19 -46 -19 -51 0 -4 -8 -26
-19 -48 -10 -21 -76 -183 -147 -359 l-128 -320 -1516 -1 c-1349 0 -1594 -3
-1621 -19 -4 -3 -24 -7 -45 -11 -22 -3 -70 -12 -109 -21 -38 -8 -81 -17 -95
-19 -14 -2 -47 -9 -75 -14 -27 -6 -61 -12 -75 -15 -14 -3 -70 -14 -125 -24
-55 -11 -113 -23 -130 -25 -49 -9 -76 -15 -93 -20 -15 -5 -70 -15 -112 -21 -8
-1 -26 -5 -40 -9 -14 -4 -36 -8 -50 -10 -14 -2 -36 -6 -50 -9 -14 -4 -38 -9
-55 -11 -16 -3 -41 -7 -55 -11 -14 -3 -36 -7 -50 -10 -14 -3 -36 -7 -50 -10
-14 -3 -38 -8 -55 -10 -16 -3 -37 -8 -45 -10 -8 -2 -31 -7 -50 -10 -19 -3 -48
-8 -65 -12 -16 -3 -37 -7 -45 -8 -8 -1 -24 -4 -35 -8 -11 -3 -38 -8 -60 -12
-22 -3 -56 -10 -75 -15 -19 -5 -53 -12 -75 -16 -22 -3 -42 -7 -45 -7 -8 -3 -8
17 0 38 14 37 112 280 123 305 6 14 11 27 12 30 5 16 18 48 26 65 8 19 30 74
34 85 1 3 6 16 12 30 6 14 24 59 41 100 75 189 135 338 151 375 10 22 24 57
30 77 7 21 17 40 22 44 5 3 7 9 4 14 -3 5 -1 11 5 15 5 3 10 12 10 19 0 8 10
35 22 62 12 27 22 52 23 56 0 3 4 10 8 15 11 10 2966 12 2988 2 9 -5 19 -5 23
-2 4 4 14 8 24 9 9 2 33 6 52 10 19 4 42 8 50 9 44 6 99 17 130 25 20 5 53 12
75 16 56 8 67 10 95 18 14 3 39 8 55 11 17 2 53 9 80 15 28 6 65 13 84 16 18
3 43 8 55 11 27 6 103 22 136 28 14 3 36 7 50 10 14 3 38 8 54 10 15 2 35 7
45 9 9 3 30 8 46 11 34 5 58 10 130 25 28 6 61 12 75 15 14 3 70 14 125 25 56
11 115 22 133 24 17 3 39 7 49 10 10 3 29 7 43 10 14 2 48 10 75 16 28 6 63
13 79 15 15 3 35 7 45 9 9 3 32 8 51 11 19 3 36 8 38 10 2 2 10 1 17 -1 10 -4
10 -10 0 -32z"/>
</g>
</svg>
