<?xml version="1.0" encoding="utf-8"?>
<!-- Generator: Adobe Illustrator 19.2.1, SVG Export Plug-In . SVG Version: 6.00 Build 0)  -->
<svg version="1.1" id="图层_1" xmlns="http://www.w3.org/2000/svg" xmlns:xlink="http://www.w3.org/1999/xlink" x="0px" y="0px"
	 viewBox="0 0 420 465.1" style="enable-background:new 0 0 420 465.1;" xml:space="preserve">
<style type="text/css">
	.st0{fill:url(#SVGID_1_);}
	.st1{fill:url(#SVGID_2_);}
	.st2{fill:url(#SVGID_3_);}
	.st3{opacity:0.3;fill:#FFFF3E;enable-background:new    ;}
	.st4{fill:#FFFFFF;}
</style>
<title>IES</title>
<linearGradient id="SVGID_1_" gradientUnits="userSpaceOnUse" x1="0" y1="234.395" x2="420" y2="234.395" gradientTransform="matrix(1 0 0 -1 0 466.8)">
	<stop  offset="0" style="stop-color:#08D078"/>
	<stop  offset="0.36" style="stop-color:#11E791"/>
	<stop  offset="0.74" style="stop-color:#18F9A5"/>
	<stop  offset="1" style="stop-color:#1AFFAC"/>
</linearGradient>
<path class="st0" d="M388.4,92.9L241.6,8.2c-19.6-11.3-43.7-11.3-63.2,0L31.6,92.9C12.1,104.2,0,125.1,0,147.7v169.5
	c0,22.6,12.1,43.5,31.6,54.8l146.8,84.7c19.6,11.3,43.7,11.3,63.2,0l146.8-84.7c19.6-11.3,31.6-32.2,31.6-54.8V147.7
	C420,125.1,407.9,104.2,388.4,92.9z"/>
<linearGradient id="SVGID_2_" gradientUnits="userSpaceOnUse" x1="211.25" y1="267.6" x2="420" y2="267.6" gradientTransform="matrix(1 0 0 -1 0 466.8)">
	<stop  offset="0" style="stop-color:#12A4FF"/>
	<stop  offset="0.35" style="stop-color:#1DAAFF"/>
	<stop  offset="0.98" style="stop-color:#3CBBFF"/>
	<stop  offset="1" style="stop-color:#3DBCFF"/>
</linearGradient>
<path class="st1" d="M388.4,92.9L241.6,8.2c-8.2-4.7-17.4-7.5-26.9-8.2l-3.5,291.4l131.2,107l45.9-26.5
	c19.6-11.3,31.6-32.2,31.6-54.8V147.7C420,125.1,407.9,104.2,388.4,92.9z"/>
<linearGradient id="SVGID_3_" gradientUnits="userSpaceOnUse" x1="12.54" y1="104.8544" x2="408.32" y2="104.8544" gradientTransform="matrix(1 0 0 -1 0 466.8)">
	<stop  offset="0" style="stop-color:#AAE22C"/>
	<stop  offset="0.19" style="stop-color:#A6E334"/>
	<stop  offset="0.48" style="stop-color:#9CE649"/>
	<stop  offset="0.83" style="stop-color:#8AEA6C"/>
	<stop  offset="1" style="stop-color:#81ED7F"/>
</linearGradient>
<path class="st2" d="M388.4,371.9c7.9-4.6,14.7-10.9,19.9-18.3l-196.6-94.8l-199.2,96c5.1,6.9,11.6,12.7,19.1,17l146.8,84.7
	c19.6,11.3,43.7,11.3,63.2,0L388.4,371.9z"/>
<path class="st3" d="M348.4,137l-125-72.2c-8.3-4.8-18.5-4.8-26.8,0L71.6,137c-8.3,4.8-13.4,13.6-13.4,23.2v144.3
	c0,9.6,5.1,18.4,13.4,23.2l125,72.2c8.3,4.8,18.5,4.8,26.8,0l125-72.2c8.3-4.8,13.4-13.6,13.4-23.2V160.2
	C361.8,150.7,356.7,141.8,348.4,137z"/>
<path class="st4" d="M217.2,277.5c-2.6-2.6-2.8-6.8-0.4-9.6l0,0c2.5-3,7-3.3,9.9-0.8c0.1,0.1,0.2,0.2,0.4,0.3
	c10.7,10.4,35.5,37,61.8,81.2l9-39.3c15-65.6-26.1-131-91.7-146l-62.5-14.3c-5.2-1.2-10.3,2.1-11.5,7.2l-9.5,41.6
	c-15,65.6,26.1,131,91.7,146l63.8,14.5C252.1,314.1,227.3,287.5,217.2,277.5z"/>
</svg>
