<svg width="1077" height="889" xmlns="http://www.w3.org/2000/svg" xmlns:xlink="http://www.w3.org/1999/xlink" xml:space="preserve" overflow="hidden" viewBox="0 0 1077 889">
  <g transform="translate(-545 -1356)">
    <g><path d="M619.065 1489.86 784.095 2038.07 711.628 2059.89 546.598 1511.67Z" fill="#1B2C49" fill-rule="nonzero" fill-opacity="1"/><path d="M589.445 1498.77 752.615 2040.81 709.768 2053.71 546.599 1511.67Z" fill="#2E4463" fill-rule="nonzero" fill-opacity="1"/><path d="M546.599 1511.67 554.215 1405.7 619.066 1489.86Z" fill="#E7D9D5" fill-rule="evenodd" fill-opacity="1"/><path d="M572.086 1441.11 589.445 1498.77 546.6 1511.67 551.363 1445.39 556.973 1446.77ZM566.05 1421.06 566.285 1421.84 554.617 1406.73 554.076 1407.64 554.215 1405.7Z" fill="#EFEAE7" fill-rule="evenodd" fill-opacity="1"/><path d="M579.133 1438.47C571.333 1444.5 561.587 1447.44 551.756 1446.73L554.617 1406.73Z" fill="#1B2C46" fill-rule="evenodd" fill-opacity="1"/><path d="M623.094 1932.92 639.32 1946.31C659.871 1960.19 684.646 1968.3 711.314 1968.3 729.093 1968.3 746.03 1964.7 761.435 1958.18L775.464 1950.57 831.668 2137.27C842.877 2174.5 821.778 2213.78 784.543 2224.98 747.309 2236.19 708.037 2215.09 696.828 2177.86Z" fill="#2E4463" fill-rule="evenodd" fill-opacity="1"/><rect x="970" y="1357" width="649" height="886" fill="#F6A72A" fill-opacity="1"/><path d="M970 1512 1011.55 1512 1054.71 1512 1129.2 1512 1472.87 1512 1516.03 1512C1532.58 1512 1546 1525.42 1546 1541.97L1546 1585.13 1546 1824.08 1546 2110.87C1546 2151.26 1513.26 2184 1472.87 2184L1129.2 2184 1054.71 2184 970 2184Z" fill="#F19D18" fill-rule="evenodd" fill-opacity="1"/><path d="M1101.93 1852.89C1093.93 1852.89 1087.07 1857.75 1084.14 1864.67L1082.62 1872.18 1082.62 1872.18 1082.62 1872.18 1084.14 1879.69C1087.07 1886.61 1093.93 1891.47 1101.93 1891.47L1424.15 1891.47C1434.82 1891.47 1443.47 1882.84 1443.47 1872.18L1443.47 1872.18C1443.47 1861.53 1434.82 1852.89 1424.15 1852.89ZM1101.93 1768.38C1093.93 1768.38 1087.07 1773.23 1084.14 1780.16L1082.62 1787.67 1082.62 1787.67 1082.62 1787.67 1084.14 1795.18C1087.07 1802.1 1093.93 1806.96 1101.93 1806.96L1424.15 1806.96C1434.82 1806.96 1443.47 1798.32 1443.47 1787.67L1443.47 1787.67C1443.47 1777.01 1434.82 1768.38 1424.15 1768.38ZM1101.93 1683.86C1093.93 1683.86 1087.07 1688.72 1084.14 1695.64L1082.62 1703.15 1082.62 1703.15 1082.62 1703.15 1084.14 1710.66C1087.07 1717.58 1093.93 1722.44 1101.93 1722.44L1424.15 1722.44C1434.82 1722.44 1443.47 1713.81 1443.47 1703.15L1443.47 1703.15C1443.47 1692.5 1434.82 1683.86 1424.15 1683.86ZM1101.93 1599.35C1093.93 1599.35 1087.07 1604.2 1084.14 1611.13L1082.62 1618.64 1082.62 1618.64 1082.62 1618.64 1084.14 1626.15C1087.07 1633.07 1093.93 1637.93 1101.93 1637.93L1424.15 1637.93C1434.82 1637.93 1443.47 1629.29 1443.47 1618.64L1443.47 1618.64C1443.47 1607.98 1434.82 1599.35 1424.15 1599.35ZM959 1512 974.765 1512 1064.05 1512 1508.24 1512C1516.94 1512 1524 1519.05 1524 1527.74L1524 2107.26C1524 2115.95 1516.94 2123 1508.24 2123L1064.05 2123 974.765 2123 959 2123Z" fill="#F5F5F7" fill-rule="evenodd" fill-opacity="1"/>
    </g>
  </g>
</svg>